<svg width="18" height="20" viewBox="0 0 18 20" fill="none" xmlns="http://www.w3.org/2000/svg">
<path d="M9.27193 0C3.79044 0 0.875305 3.51266 0.875305 7.34283C0.875305 9.11916 1.86785 11.3343 3.45667 12.0368C3.69793 12.1455 3.82919 12.0993 3.88294 11.8755C3.93044 11.7055 4.1392 10.8867 4.24046 10.5005C4.27171 10.3767 4.25546 10.2692 4.15545 10.153C3.62793 9.54293 3.20916 8.43163 3.20916 7.38908C3.20916 4.71771 5.33301 2.12385 8.94692 2.12385C12.0721 2.12385 14.2584 4.15394 14.2584 7.05782C14.2584 10.3392 12.5221 12.6093 10.2657 12.6093C9.01692 12.6093 8.08688 11.6293 8.38189 10.4167C8.73816 8.9729 9.43694 7.42033 9.43694 6.37904C9.43694 5.44524 8.90942 4.67271 7.83187 4.67271C6.56056 4.67271 5.52926 5.93152 5.52926 7.62159C5.52926 8.69539 5.90928 9.42042 5.90928 9.42042C5.90928 9.42042 4.65173 14.5007 4.41796 15.4494C4.02295 17.0558 4.47172 19.6571 4.51047 19.8809C4.53422 20.0046 4.67298 20.0434 4.75048 19.9421C4.87423 19.7796 6.3943 17.6108 6.82057 16.0432C6.97558 15.4719 7.61186 13.1556 7.61186 13.1556C8.03063 13.9119 9.23943 14.5457 10.527 14.5457C14.3572 14.5457 17.1248 11.1793 17.1248 7.00156C17.111 2.99638 13.6834 0 9.27193 0Z" fill="#E89806"/>
</svg>


